
<svg xmlns="http://www.w3.org/2000/svg" viewBox="0 0 1200 600">
  <rect width="1200" height="200" fill="#FF0000"/>
  <rect y="200" width="1200" height="200" fill="#FFFFFF"/>
  <rect y="400" width="1200" height="200" fill="#0093DD"/>
  <g transform="translate(600, 300) scale(0.6)">
    <g fill="#0093DD">
      <rect x="-100" y="-100" width="200" height="200"/>
      <rect x="-550" y="-300" width="200" height="200"/>
      <rect x="-300" y="-300" width="200" height="200"/>
      <rect x="-50" y="-300" width="200" height="200"/>
      <rect x="200" y="-300" width="200" height="200"/>
      <rect x="450" y="-300" width="200" height="200"/>
      <rect x="-550" y="200" width="200" height="200"/>
      <rect x="-300" y="200" width="200" height="200"/>
      <rect x="-50" y="200" width="200" height="200"/>
      <rect x="200" y="200" width="200" height="200"/>
      <rect x="450" y="200" width="200" height="200"/>
    </g>
    <g fill="#FF0000">
      <rect x="-550" y="-50" width="200" height="200"/>
      <rect x="-300" y="-50" width="200" height="200"/>
      <rect x="200" y="-50" width="200" height="200"/>
      <rect x="450" y="-50" width="200" height="200"/>
    </g>
  </g>
</svg>
