
<svg xmlns="http://www.w3.org/2000/svg" viewBox="0 0 1235 650">
  <rect width="1235" height="650" fill="#B22234"/>
  <g fill="#FFFFFF">
    <rect width="1235" height="50" y="50"/>
    <rect width="1235" height="50" y="150"/>
    <rect width="1235" height="50" y="250"/>
    <rect width="1235" height="50" y="350"/>
    <rect width="1235" height="50" y="450"/>
    <rect width="1235" height="50" y="550"/>
  </g>
  <rect width="494" height="350" fill="#3C3B6E"/>
  <g fill="#FFFFFF">
    <g>
      <g>
        <g>
          <polygon points="41.2,65 47.9,85.8 29.4,73.1 52.9,73.1 34.4,85.8"/>
          <polygon points="41.2,130 47.9,150.8 29.4,138.1 52.9,138.1 34.4,150.8"/>
          <polygon points="41.2,195 47.9,215.8 29.4,203.1 52.9,203.1 34.4,215.8"/>
          <polygon points="41.2,260 47.9,280.8 29.4,268.1 52.9,268.1 34.4,280.8"/>
        </g>
        <g>
          <polygon points="82.4,32.5 89.1,53.3 70.6,40.6 94.1,40.6 75.6,53.3"/>
          <polygon points="82.4,97.5 89.1,118.3 70.6,105.6 94.1,105.6 75.6,118.3"/>
          <polygon points="82.4,162.5 89.1,183.3 70.6,170.6 94.1,170.6 75.6,183.3"/>
          <polygon points="82.4,227.5 89.1,248.3 70.6,235.6 94.1,235.6 75.6,248.3"/>
          <polygon points="82.4,292.5 89.1,313.3 70.6,300.6 94.1,300.6 75.6,313.3"/>
        </g>
      </g>
      <g>
        <g>
          <polygon points="123.5,65 130.2,85.8 111.7,73.1 135.2,73.1 116.7,85.8"/>
          <polygon points="123.5,130 130.2,150.8 111.7,138.1 135.2,138.1 116.7,150.8"/>
          <polygon points="123.5,195 130.2,215.8 111.7,203.1 135.2,203.1 116.7,215.8"/>
          <polygon points="123.5,260 130.2,280.8 111.7,268.1 135.2,268.1 116.7,280.8"/>
        </g>
        <g>
          <polygon points="164.7,32.5 171.4,53.3 152.9,40.6 176.4,40.6 157.9,53.3"/>
          <polygon points="164.7,97.5 171.4,118.3 152.9,105.6 176.4,105.6 157.9,118.3"/>
          <polygon points="164.7,162.5 171.4,183.3 152.9,170.6 176.4,170.6 157.9,183.3"/>
          <polygon points="164.7,227.5 171.4,248.3 152.9,235.6 176.4,235.6 157.9,248.3"/>
          <polygon points="164.7,292.5 171.4,313.3 152.9,300.6 176.4,300.6 157.9,313.3"/>
        </g>
      </g>
    </g>
    <g>
      <g>
        <g>
          <polygon points="205.9,65 212.6,85.8 194.1,73.1 217.6,73.1 199.1,85.8"/>
          <polygon points="205.9,130 212.6,150.8 194.1,138.1 217.6,138.1 199.1,150.8"/>
          <polygon points="205.9,195 212.6,215.8 194.1,203.1 217.6,203.1 199.1,215.8"/>
          <polygon points="205.9,260 212.6,280.8 194.1,268.1 217.6,268.1 199.1,280.8"/>
        </g>
        <g>
          <polygon points="247.1,32.5 253.8,53.3 235.3,40.6 258.8,40.6 240.3,53.3"/>
          <polygon points="247.1,97.5 253.8,118.3 235.3,105.6 258.8,105.6 240.3,118.3"/>
          <polygon points="247.1,162.5 253.8,183.3 235.3,170.6 258.8,170.6 240.3,183.3"/>
          <polygon points="247.1,227.5 253.8,248.3 235.3,235.6 258.8,235.6 240.3,248.3"/>
          <polygon points="247.1,292.5 253.8,313.3 235.3,300.6 258.8,300.6 240.3,313.3"/>
        </g>
      </g>
      <g>
        <g>
          <polygon points="288.2,65 294.9,85.8 276.4,73.1 299.9,73.1 281.4,85.8"/>
          <polygon points="288.2,130 294.9,150.8 276.4,138.1 299.9,138.1 281.4,150.8"/>
          <polygon points="288.2,195 294.9,215.8 276.4,203.1 299.9,203.1 281.4,215.8"/>
          <polygon points="288.2,260 294.9,280.8 276.4,268.1 299.9,268.1 281.4,280.8"/>
        </g>
        <g>
          <polygon points="329.4,32.5 336.1,53.3 317.6,40.6 341.1,40.6 322.6,53.3"/>
          <polygon points="329.4,97.5 336.1,118.3 317.6,105.6 341.1,105.6 322.6,118.3"/>
          <polygon points="329.4,162.5 336.1,183.3 317.6,170.6 341.1,170.6 322.6,183.3"/>
          <polygon points="329.4,227.5 336.1,248.3 317.6,235.6 341.1,235.6 322.6,248.3"/>
          <polygon points="329.4,292.5 336.1,313.3 317.6,300.6 341.1,300.6 322.6,313.3"/>
        </g>
      </g>
    </g>
    <g>
      <g>
        <g>
          <polygon points="370.6,65 377.3,85.8 358.8,73.1 382.3,73.1 363.8,85.8"/>
          <polygon points="370.6,130 377.3,150.8 358.8,138.1 382.3,138.1 363.8,150.8"/>
          <polygon points="370.6,195 377.3,215.8 358.8,203.1 382.3,203.1 363.8,215.8"/>
          <polygon points="370.6,260 377.3,280.8 358.8,268.1 382.3,268.1 363.8,280.8"/>
        </g>
        <g>
          <polygon points="411.8,32.5 418.5,53.3 400,40.6 423.5,40.6 405,53.3"/>
          <polygon points="411.8,97.5 418.5,118.3 400,105.6 423.5,105.6 405,118.3"/>
          <polygon points="411.8,162.5 418.5,183.3 400,170.6 423.5,170.6 405,183.3"/>
          <polygon points="411.8,227.5 418.5,248.3 400,235.6 423.5,235.6 405,248.3"/>
          <polygon points="411.8,292.5 418.5,313.3 400,300.6 423.5,300.6 405,313.3"/>
        </g>
      </g>
      <g>
        <g>
          <polygon points="452.9,65 459.6,85.8 441.1,73.1 464.6,73.1 446.1,85.8"/>
          <polygon points="452.9,130 459.6,150.8 441.1,138.1 464.6,138.1 446.1,150.8"/>
          <polygon points="452.9,195 459.6,215.8 441.1,203.1 464.6,203.1 446.1,215.8"/>
          <polygon points="452.9,260 459.6,280.8 441.1,268.1 464.6,268.1 446.1,280.8"/>
        </g>
      </g>
    </g>
  </g>
</svg>
